<svg version="1" xmlns="http://www.w3.org/2000/svg" width="1005.3" height="1005.3" viewBox="0 0 754 754">
  <path d="M354.8.5c-.2 0-4.5.6-9.6 1-5 .3-10 .8-11 1-1 0-4.2.6-7.3 1l-8 1-9 1.5-9 1.5-5 1-6 1.5-6 1.4c-9.8 2-29 8.3-47 15.3-42 16.6-87 45.5-120 77.3-27 26-47.6 51.6-65.6 82.4L46 197c-3.2 5.4-14 28.6-18.5 39.5-7 17.4-16.4 47.5-19 62-1.7 8.5-4.6 27-5 31l-1 7.5c-.5 2.7-1.8 22.8-2 29.5v4H126V366c.6-14.3 3.2-34.5 6.3-46.5 7.8-30.6 15.4-49 31.2-75.3 16.4-27.4 45.8-57.6 74.6-77 36-23.3 75-37 118-41 15-1 44-.5 53 1.3 1 .2 4 .7 7 1 26 3.7 60 15.5 84 29.5 3 2 7 3.8 8 4.4 12 6.6 30 20.8 44 34.6l10 9-28.4 28c-15.5 15.3-29 29-30 30l-2 2h199V67l-6 5.8L670 97.3c-10.7 11-19.7 19.7-20 19.7-.5 0-5-4-10-9-10-9.6-11-10.7-23-21-11-9.2-22.4-17.5-34-25.2-9-5.8-12.4-7.8-23-14-7-4-31.8-16-40-19.3-18-7.2-41.6-15-50.7-17-1.4 0-6.3-1.3-11-2.4-11-2-25.5-5-39.5-6L410 2c-2.6-.6-54.7-1.4-55.2-1z"/>
  <path d="M322.4 278.4c-1.8.8-3.8 3-5 5.2-1.8 3.7-2 7.5-2.2 92.4-.2 62.2 0 89.6.8 92.3 2.5 8.4 9.4 8.5 25.3.2 14-7.2 17-9 17.7-9.5.5-.6 18.4-10.5 31-17.3 4-2.2 8-4.3 8.5-4.7.6-.4 3-2 5.5-3.3l44.5-24.7 44.5-24.7c8-4.6 10.3-9.8 5.8-14-1.3-1-17.6-10.6-36.3-21L411 320.5l-21.5-12c-2.2-1-14.8-8-28-15.4-21.8-12-30.2-16-34.4-16 0 0-3 1-4 2z"/>
  <path d="M628 382c-.4.3-1 5.2-1.4 11-.7 11.6-.8 12.5-3.6 28.6-10 57.4-43.5 113-90.5 150.4-30.4 24.2-67.3 41.4-106 49.6-24 5-56.5 6.2-82.2 3-45-6-89.5-25-125-53.8-9.6-7.8-26.3-23.7-26.3-25 0-.5 13.3-14 29.5-30.3 16.2-16.2 29.5-29.7 29.5-30 0-.3-44.7-.5-99.3-.5H53.4v199l3-2.7L81 656.7c12-12 22.4-21.7 23-21.5.4 0 5.5 4.8 11.2 10.3 14 13.6 27 24.8 36.8 31.8 1.4 1 4 3 6 4.3 19 14 48.7 30.6 73.2 41 26.3 11 61.7 21 87.3 25 2.2.2 5.4.7 7 1 17.6 2.7 59.3 4 81.2 2 57.5-4.4 118-24 165.8-54 75-46.7 131-116 159-196.6 6.4-18.3 12.8-42.6 15-56.4.3-2 .7-4 1-4.5l1-6 1-8c1-4 1.6-12 3-35 .2-4 0-7-.3-7-2.3-.3-123.5-.2-124 0z"/>
</svg>
